<svg xmlns="http://www.w3.org/2000/svg" width="128" height="128" style="shape-rendering:geometricPrecision;text-rendering:geometricPrecision;image-rendering:optimizeQuality;fill-rule:evenodd;clip-rule:evenodd"><path fill="#26231e" d="M86.5-.5h18a48.6 48.6 0 0 1 5 6.5l-2 1q8 1 0 2 4.668 1.275 1 3.5 1.905 1.182 3 3-3.057 9.692-1.5 20 1.638 2.425 4.5 3a5.58 5.58 0 0 1-1 3 31.4 31.4 0 0 0 7 3.5q-3.126 1.046-5 3.5-2.031-3.81-6-4.5 3.35 2.456 4 6.5-.016 2.276-2 3.5-5 2.273-10 1.5 7.561-4.975 0-9-1.96-1.45-2-4 4.328.46 8-1 2.072-2.661-1-4.5 1.526-1.575.5-3.5a32.8 32.8 0 0 0-5.5-3.5l2-1q-3.546-1.518-4-4l5-1-5-3q6.528-.628 1-2l2-1-4-2q1.137-2.045-1.5-3.5l-1 1a210 210 0 0 0-9.5-14" style="opacity:1"/><path fill="#2d2925" d="M30.5-.5h56a210 210 0 0 1 9.5 14l1-1q2.637 1.455 1.5 3.5l4 2-2 1q5.528 1.372-1 2l5 3-5 1q.454 2.482 4 4l-2 1a32.8 32.8 0 0 1 5.5 3.5q1.026 1.925-.5 3.5 3.072 1.839 1 4.5-9.214-1.829-18 0a12.8 12.8 0 0 0-6 3l3.5 1a68.5 68.5 0 0 0 12.5-3q.04 2.55 2 4-5.02.804-10 2a7.3 7.3 0 0 1-3-2 18.7 18.7 0 0 1-6.5 6 29.5 29.5 0 0 1-2.5 4.5 110 110 0 0 0 5 8.5q-3.619-.384-5 3a34.2 34.2 0 0 0 8 1.5 25.2 25.2 0 0 0-4 4.5q-2.343.35-4 2-4.395 3.445-10 4.5-1.128 1.005-1 2.5-4.452-4.975 3-5.5-3.085-.458-6 0a49 49 0 0 1-6.5-9.5q-1.517-1.255-3.5-1a970 970 0 0 0 6-4.5q-3.066-.072-6 1.5-1.445-.705 0-2 3.948-5.795 10.5-5 1-2 0-4-7.902-5.392-16.5-1-1.593-1.387 0-3a5.73 5.73 0 0 1 3-1 372 372 0 0 0 14-6.5q1.794-.981 0-1.5a81.6 81.6 0 0 0-11 5q-1.794-.519 0-1.5 9.759-5.829 21-8.5l-3.5-1q-4.859.915-9.5 1.5a40 40 0 0 0 6-8.5 29 29 0 0 1-1.5-4 36 36 0 0 1-4.5-2q1.438-.68 2.5-2-.07-2.72.5-5-3.6-4.29-9-3.5-6.535 4.244-11.5 10.5-1.08 2.418.5 4.5 3.312.285 6 1.5a103 103 0 0 0-9.5 3q-4.232-1.269-6.5 3-1.314-.195-2 1 .53 5.22 4 9-5.925 3.483-12 3 2.73-8.822 7.5-17 2.739-2.36 6.5-2.5 6.25-8.75-2.5-2.5 1.49-6.058 7-10 .75-7.25-6.5-6.5Q28.145 17.956 26 32.5q-4.73 6.994-12.5 4 1.143-1.152 3-1.5-2.341-.476-3.5-2.5l-1 1q-2.453-4.217 1-8l1 3q1 2 2 0-.192-2.917.5-5.5a4.45 4.45 0 0 1-2-1.5l3-4q-2.942-2.022-.5-4l1 1A20.4 20.4 0 0 1 19.5 9q-2-2.76.5-1.5l3-5q1 4 2 0a7.3 7.3 0 0 1 2 3l1-2a7.3 7.3 0 0 0 2 3q.21-2.633-1.5-5 .519-1.794 1.5 0a2.43 2.43 0 0 0 .5-2" style="opacity:1"/><path fill="#97938e" d="M26.5 46.5a9.1 9.1 0 0 1 1-5 4.45 4.45 0 0 0-1.5-2q-.348 1.856-1.5 3-1.437-.68-2.5-2-4.485 4.188-5.5 10-7.962-.963-9-9 1.69-3.875 6-5 7.77 2.994 12.5-4Q28.145 17.956 38.5 8q7.25-.75 6.5 6.5-5.51 3.942-7 10 8.75-6.25 2.5 2.5-3.761.14-6.5 2.5-4.77 8.178-7.5 17" style="opacity:1"/><path fill="#c3bbb4" d="M63.5 21.5q-2.53 4.765-8 5.5l6 1q-1.608 1.926-4 1l-1 1q2.487 1.088 1.5 3.5-4.657 1.522-7.5 5.5.894 2.995 3 6.5a5.58 5.58 0 0 0-1 3 5.73 5.73 0 0 0-3 1q-5.783 2.442-11-1 1.459-3.204 5-3.5-3.587-1.037 0-3a4.93 4.93 0 0 0-3-.5 25 25 0 0 1 1-8q6.213-1.887 11-6-2.688-1.215-6-1.5-1.58-2.082-.5-4.5 4.965-6.256 11.5-10.5 5.4-.79 9 3.5-.57 2.28-.5 5-1.062 1.32-2.5 2" style="opacity:1"/><path fill="#772c26" d="M111.5 15.5q5.855.227 6 6-1.845 4.267 0 8.5-.163 5.059-3 8.5-2.862-.575-4.5-3-1.557-10.308 1.5-20" style="opacity:1"/><path fill="#5a5652" d="M52.5 27.5q-4.787 4.113-11 6a11.8 11.8 0 0 1-3.5 2q-1.545-.504-1.5-2 2.268-4.269 6.5-3a103 103 0 0 1 9.5-3" style="opacity:1"/><path fill="#d6cec4" d="M89.5 29.5q7.787-1.9 11 5l-1 2q-5.01 1.499-10 1.5a95 95 0 0 0 0-8.5" style="opacity:1"/><path fill="#b6afa8" d="M63.5 21.5a36 36 0 0 0 4.5 2 29 29 0 0 0 1.5 4 40 40 0 0 1-6 8.5q4.641-.585 9.5-1.5l3.5 1q-11.241 2.672-21 8.5-1.794.981 0 1.5a81.6 81.6 0 0 1 11-5q1.794.519 0 1.5a372 372 0 0 1-14 6.5 5.58 5.58 0 0 1 1-3q-2.106-3.505-3-6.5 2.843-3.978 7.5-5.5.987-2.412-1.5-3.5l1-1q2.392.926 4-1l-6-1q5.47-.735 8-5.5" style="opacity:1"/><path fill="#302c29" d="M47.5 35.5a2.43 2.43 0 0 1 2 .5l-4 4q-1.703 1.125-3-.5a23.7 23.7 0 0 1 5-4" style="opacity:1"/><path fill="#9b9187" d="M89.5 41.5q8.786-1.829 18 0-3.672 1.46-8 1-4.687-1.47-10-1" style="opacity:1"/><path fill="#1d1a17" d="M104.5-.5h23v49q-4.707 2.64-3 7.5h-4v5q-1.5 2.5-4 4l1 1a23 23 0 0 1-5 2l2 1q-.32 2.451-1 4.5-3.968-2.613-9-2a9.86 9.86 0 0 1-6-1q2.297-1.67 3-4.5a76 76 0 0 1-2.5-6.5 51.7 51.7 0 0 1 9.5-1.5q3.615-.9 6-3.5 3.019-2.562 1-6 1.874-2.454 5-3.5a31.4 31.4 0 0 1-7-3.5 5.58 5.58 0 0 0 1-3q2.837-3.441 3-8.5-1.845-4.233 0-8.5-.145-5.773-6-6-1.095-1.818-3-3 3.668-2.225-1-3.5 8-1 0-2l2-1a48.6 48.6 0 0 0-5-6.5" style="opacity:1"/><path fill="#dbd2c9" d="M89.5 41.5q5.313-.47 10 1a68.5 68.5 0 0 1-12.5 3l-3.5-1a12.8 12.8 0 0 1 6-3" style="opacity:1"/><path fill="#807871" d="M115.5 48.5q2.019 3.438-1 6 .401-2.398-1-4-.65-4.044-4-6.5 3.969.69 6 4.5" style="opacity:1"/><path fill="#aca7a2" d="M36.5 33.5q-.045 1.496 1.5 2a11.8 11.8 0 0 0 3.5-2 25 25 0 0 0-1 8 4.93 4.93 0 0 1 3 .5q-3.587 1.963 0 3-3.541.296-5 3.5 5.217 3.442 11 1-1.593 1.613 0 3 8.598-4.392 16.5 1 1 2 0 4-6.552-.795-10.5 5-1.487.258-2-1 1.824-2.925 5-4.5-7.892-2.289-12 4.5a25 25 0 0 1-7-.5l1-1q-2.21-1.064-2-3.5 2.331-2.092-1-2-4.446 1.458-9 .5a11.15 11.15 0 0 0-3.5-5.5q-.739 1.573.5 3a186 186 0 0 0-2 3q-1.108-4.727 0-10 1.356-1.064 1-3 1.152-1.144 1.5-3a4.45 4.45 0 0 1 1.5 2 9.1 9.1 0 0 0-1 5q6.075.483 12-3-3.47-3.78-4-9 .686-1.195 2-1" style="opacity:1"/><path fill="#cec7bf" d="M73.5 44.5h3q1.224 7.439 0 15a52 52 0 0 0-7 1 31.6 31.6 0 0 1-.5-8 47.4 47.4 0 0 0 4.5-8" style="opacity:1"/><path fill="#74716e" d="M53.5 61.5q.513 1.258 2 1-1.445 1.295 0 2 2.934-1.572 6-1.5a970 970 0 0 1-6 4.5q-3.07 2.198-5.5-1-.96-4.302 3.5-5" style="opacity:1"/><path fill="#ccc4bc" d="M101.5 46.5q7.561 4.025 0 9 5 .773 10-1.5 1.984-1.224 2-3.5 1.401 1.602 1 4-2.385 2.6-6 3.5a51.7 51.7 0 0 0-9.5 1.5 76 76 0 0 0 2.5 6.5q-.703 2.83-3 4.5a9.86 9.86 0 0 0 6 1l1 2q-2.926-.41-4.5 2l-1-2q-2.391 2.695-6 3-4.873-3.726-10.5-2a25.2 25.2 0 0 1 4-4.5 34.2 34.2 0 0 1-8-1.5q1.381-3.384 5-3a110 110 0 0 1-5-8.5q1.44-2.13 2.5-4.5a18.7 18.7 0 0 0 6.5-6 7.3 7.3 0 0 0 3 2q4.98-1.196 10-2" style="opacity:1"/><path fill="#35302b" d="M92.5 53.5q2.377.753 1.5 3-3.044 2.64-6.5 3.5a69 69 0 0 1 5-6.5" style="opacity:1"/><path fill="#7d7873" d="M104.5 71.5q5.032-.613 9 2-1.404 2.211-4 3a25 25 0 0 1-8 1 39 39 0 0 1 5-2.5q-.834-.575-1-1.5z" style="opacity:1"/><path fill="#3d3b37" d="M23.5 45.5q-1.108 5.273 0 10a60 60 0 0 0-3 10.5q.105 1.148 1 1.5-.92 2.674-3.5 4a20.6 20.6 0 0 1-2 6 11.4 11.4 0 0 0-1.5-3.5A356 356 0 0 1 21 46.5a6.8 6.8 0 0 1 1.5-3q1.195.686 1 2" style="opacity:1"/><path fill="#221f1c" d="M38.5 56.5q-1.132 4.265-4 8 8.52 12.165 12-3 4.108-6.789 12-4.5-3.176 1.575-5 4.5-4.46.698-3.5 5 2.43 3.198 5.5 1 1.983-.255 3.5 1a49 49 0 0 0 6.5 9.5q2.915-.458 6 0-7.452.525-3 5.5h3q-.329 1.762 1 3a116 116 0 0 0 13-5l16-4a25 25 0 0 0 8-1q-2.289 2.445-6 2.5l3 1q-.678 2.418-4 3l2 1q-6.648.935-1 3l-2 1 4 1q-1.647 1.155 0 2.5-.984 1.166-2.5 2-1.616-1.395-3.5-2-1.401 1.602-1 4h-3v-3q-1.218-1.7-5-.5 1.373.417 2 1.5-3.02.163-5-2-3 1.69-6 .5 1.32 1.063 2 2.5-1.401 1.602-1 4h-3q.453-3.84-1-7l-5 2 1 2q-1.155 2.698-4 4a14.8 14.8 0 0 0-5.5-3q-1.418.608-2 2-.417-1.373-1.5-2a10.5 10.5 0 0 1-3-2.5q2.184-.634 1.5-2.5-2.687 3.02-4 0-1 3 0 6l1-3q1.694 2.462 4.5 3-2.514 2.997-6 1a26.7 26.7 0 0 1-1.5-7q-.36 3.528-2.5 6a2.43 2.43 0 0 0-.5-2q-1.517 1.255-3.5 1v-4a8.43 8.43 0 0 0 4-.5q-7.278-2.377-5 4.5 1.783 1.393 4 1-2.983 2.962-5.5 0-1.465 1.911-2.5 0 .814-.09 1-1-3.51-9.992-7 0l-2 1q-1.602-1.401-4-1 .24-2.55-.5-5a18.4 18.4 0 0 0-.5 6q-2.67-5.643 3-8.5a7.3 7.3 0 0 0-3-2q4.012-2.184 7.5 1.5.684-1.866-1.5-2.5l2-4-7.5-7.5q-.925 1.424.5 2.5a9.5 9.5 0 0 0-2.5 1.5 30 30 0 0 0-6.5-6.5q.435-2.217 0-4.5-.895-.352-1-1.5a60 60 0 0 1 3-10.5 186 186 0 0 1 2-3q-1.239-1.427-.5-3a11.15 11.15 0 0 1 3.5 5.5q4.554.958 9-.5 3.331-.092 1 2" style="opacity:1"/><path fill="#918e8a" d="M38.5 56.5q-.21 2.436 2 3.5l-1 1q3.465.745 7 .5-3.48 15.165-12 3 2.868-3.735 4-8" style="opacity:1"/><path fill="#1a1715" d="M-.5-.5h31a2.43 2.43 0 0 1-.5 2q-.981-1.794-1.5 0 1.71 2.367 1.5 5a7.3 7.3 0 0 1-2-3l-1 2a7.3 7.3 0 0 0-2-3q-1 4-2 0l-3 5q-2.5-1.26-.5 1.5a20.4 20.4 0 0 0-1.5 5.5l-1-1q-2.442 1.978.5 4l-3 4a4.45 4.45 0 0 0 2 1.5q-.692 2.583-.5 5.5-1 2-2 0l-1-3q-3.453 3.783-1 8l1-1q1.159 2.024 3.5 2.5-1.857.348-3 1.5-4.31 1.125-6 5 1.037 8.037 9 9 1.015-5.812 5.5-10 1.063 1.32 2.5 2 .356 1.936-1 3 .195-1.314-1-2a6.8 6.8 0 0 0-1.5 3A356 356 0 0 0 14.5 74a11.4 11.4 0 0 1 1.5 3.5 20.6 20.6 0 0 0 2-6q2.58-1.326 3.5-4 .435 2.283 0 4.5 3.75 2.75 6.5 6.5a9.5 9.5 0 0 1 2.5-1.5q-1.425-1.076-.5-2.5l7.5 7.5-2 4q2.184.634 1.5 2.5-3.488-3.684-7.5-1.5a7.3 7.3 0 0 1 3 2q-5.67 2.857-3 8.5h5l2-1q.09.814 1 1 1.148-1.668 3-2v3q-2.217-.393-4 1a18.9 18.9 0 0 0 5 3q1.625 1.297.5 3-1.665-2.305-4.5-2v10q-1.465-4.18-1-9v-1a50.4 50.4 0 0 0-16-6h6a14.8 14.8 0 0 0-2-6.5q-2.46-.522-4 1.5-1.203 2.177-1.5 5-.516-12.483-11.5-20l2-1q-7.185-7.96-10-17z" style="opacity:1"/><path fill="#060504" d="M-.5 59.5q2.815 9.04 10 17l-2 1q10.984 7.517 11.5 20 .297-2.823 1.5-5v5a50.4 50.4 0 0 1 16 6q-1.916 1.79-2 5 .01 2.804 1 5 4.142 2.5 9.5 3 .598-.342.5-1 1.236-5.718 1.5-12l1 9 1-4q.621.686 1.5 1a44 44 0 0 1 2-3q-.247 5.025.5 10 1.79-3.185 2-7 1.076.816 1.5 2 1.325 3.918 6 7l4-2q3.93 1.533 8 0 2.295-.21 3-2 2.11-.71 2-3 1.185-1.663 1.5-4l2 2q.297-2.823 1.5-5a31.1 31.1 0 0 0 1 11 34.2 34.2 0 0 0 1.5-8l5 4 1-1q.075 3.366 2.5 5 1.152-1.144 1.5-3l1 2q1.949-.699 4.5 0 6.857 3.124 10-3.5-2.61-2.74-5 .5a4.46 4.46 0 0 0 2 1.5q-9.25 2.75-6.5-6.5a261 261 0 0 0 7.5-2 13.1 13.1 0 0 0-7-1q3.196-1.221 7-1.5a6.8 6.8 0 0 1-3-1.5q2.075-6.244 6-13a3.65 3.65 0 0 0-1-1.5q3.18-3.614 6-7.5-1.694-3.045 1.5-1 1.757-3.174 4.5-2 1.852-1.26 3-3v55H-.5z" style="opacity:1"/><path fill="#8d8985" d="M79.5 76.5v3q3.327.17 6 2a116 116 0 0 1-13 5q-1.329-1.238-1-3h-3q-.128-1.495 1-2.5 5.605-1.055 10-4.5" style="opacity:1"/><path fill="#a6a29c" d="M105.5 73.5q.166.925 1 1.5a39 39 0 0 0-5 2.5l-16 4q-2.673-1.83-6-2v-3q1.657-1.65 4-2 5.627-1.726 10.5 2 3.609-.305 6-3l1 2q1.574-2.41 4.5-2" style="opacity:1"/><path fill="#9a9796" d="M51.5 97.5h-1q-2.217.393-4-1-2.278-6.877 5-4.5a8.43 8.43 0 0 1-4 .5v4q1.983.255 3.5-1 .696.891.5 2" style="opacity:1"/><path fill="#a09d9b" d="m42.5 97.5-2-2q-1.852.332-3 2-.91-.186-1-1 3.49-9.992 7 0-.186.91-1 1" style="opacity:1"/><path fill="#85817f" d="M20.5 97.5v-5q1.54-2.022 4-1.5a14.8 14.8 0 0 1 2 6.5z" style="opacity:1"/><path fill="#bab8b5" d="M34.5 97.5h-5a18.4 18.4 0 0 1 .5-6q.74 2.45.5 5 2.398-.401 4 1" style="opacity:1"/><path fill="#171513" d="M127.5 48.5v24q-1.148 1.74-3 3-2.743-1.174-4.5 2-3.193-2.045-1.5 1a102 102 0 0 1-6 7.5q.686.621 1 1.5-3.925 6.756-6 13a6.8 6.8 0 0 0 3 1.5q-3.804.279-7 1.5-5.03 5.132-1 11-2.551-.699-4.5 0l-1-2q-.348 1.856-1.5 3a36.9 36.9 0 0 0-1-12q-.31 9.621-6.5 3a4.93 4.93 0 0 1-.5-3q-1.936-.356-3 1-1.203 2.177-1.5 5l-2-2q-.315 2.337-1.5 4-.187-11.721-10.5-6-4.365 10.122 6.5 9.5-9.175-1.417-4-9 10.5-1 5 8 .342.598 1 .5-.705 1.79-3 2-4.07 1.533-8 0l-4 2q-4.675-3.082-6-7 3.834 1.565 6.5 5 1-1.5 0-3a17.8 17.8 0 0 1-5.5-4.5q4.474-1.62 4-5.5-5.287 8.846-8 0-1.329 1.238-1 3a44 44 0 0 0-2 3 3.65 3.65 0 0 1-1.5-1l-1 4-1-9q-.264 6.282-1.5 12a72.4 72.4 0 0 0-.5-12 50.4 50.4 0 0 0-.5 10q-3.757 1.375-7 0v-10q2.835-.305 4.5 2 1.125-1.703-.5-3a18.9 18.9 0 0 1-5-3q1.783-1.393 4-1v-3l2 2q1.035 1.911 2.5 0 2.517 2.962 5.5 0h1q2.14-2.472 2.5-6 .279 3.6 1.5 7 3.486 1.997 6-1v-1q1.083.627 1.5 2 .582-1.392 2-2a14.8 14.8 0 0 1 5.5 3q2.845-1.302 4-4 .925-.165 1.5-1a10.25 10.25 0 0 0 1.5 4 13.1 13.1 0 0 0 1-7q1.453 3.16 1 7h3q-.401-2.398 1-4-.329 1.762 1 3 1.059-3.306 3-6 1.98 2.163 5 2-.428 2.682 1 5a169 169 0 0 1 2-6v3h3q-.401-2.398 1-4a9.86 9.86 0 0 0 1 6q1.329-1.238 1-3h3a4.93 4.93 0 0 0 .5 3q.743-2.96.5-6-1.647-1.345 0-2.5l-4-1 2-1q-5.648-2.065 1-3l-2-1q3.322-.582 4-3l-3-1q3.711-.055 6-2.5 2.596-.789 4-3 .68-2.049 1-4.5l-2-1a23 23 0 0 0 5-2l-1-1q2.5-1.5 4-4v-5h4q-1.707-4.86 3-7.5" style="opacity:1"/><path fill="#999593" d="M87.5 91.5q-1.941 2.694-3 6-1.329-1.238-1-3-.68-1.437-2-2.5 3 1.19 6-.5" style="opacity:1"/><path fill="#a3a09e" d="M99.5 91.5q1.884.605 3.5 2 1.516-.834 2.5-2a18.5 18.5 0 0 1-.5 6 4.93 4.93 0 0 1-.5-3h-3q.329 1.762-1 3a9.86 9.86 0 0 1-1-6" style="opacity:1"/><path fill="#c0bdbb" d="M73.5 93.5q-1.185 1.663-1.5 4-1-3 0-6 1.076.816 1.5 2" style="opacity:1"/><path fill="#9c9999" d="M95.5 92.5a169 169 0 0 0-2 6q-1.428-2.318-1-5-.627-1.083-2-1.5 3.782-1.2 5 .5" style="opacity:1"/><path fill="#999696" d="M78.5 91.5a13.1 13.1 0 0 1-1 7 10.25 10.25 0 0 1-1.5-4q-.575.835-1.5 1l-1-2z" style="opacity:1"/><path fill="#9a9797" d="M61.5 96.5v1q-2.806-.538-4.5-3l-1 3q-1-3 0-6 1.313 3.02 4 0 .684 1.866-1.5 2.5a10.5 10.5 0 0 0 3 2.5" style="opacity:1"/><path fill="#adaca9" d="M56.5 111.5q-.424-1.184-1.5-2-.21 3.815-2 7a50.4 50.4 0 0 1-.5-10q-.329-1.762 1-3 2.713 8.846 8 0 .474 3.88-4 5.5a17.8 17.8 0 0 0 5.5 4.5q1 1.5 0 3-2.666-3.435-6.5-5" style="opacity:1"/><path fill="#b1b0ae" d="M79.5 111.5q.11 2.29-2 3-.658.098-1-.5 5.5-9-5-8-5.175 7.583 4 9-10.865.622-6.5-9.5 10.313-5.721 10.5 6" style="opacity:1"/><path fill="#aeada9" d="M95.5 115.5q-2.425-1.634-2.5-5l-1 1-5-4a34.2 34.2 0 0 1-1.5 8 31.1 31.1 0 0 1-1-11q1.064-1.356 3-1a4.93 4.93 0 0 0 .5 3q6.19 6.621 6.5-3a36.9 36.9 0 0 1 1 12" style="opacity:1"/><path fill="#6b6864" d="M36.5 103.5v1q-1.465 4.18-1 9-.99-2.196-1-5 .084-3.21 2-5" style="opacity:1"/><path fill="#adaca9" d="M27.5 103.5q1.724.436 2 2.5-.471 5.643-3 10.5a39.4 39.4 0 0 1-4.5-6 14.6 14.6 0 0 0-4 6q-3.699-5.587-1.5-12l2 7q2.028-1.527 3-4a29.8 29.8 0 0 1 4.5 6 31.3 31.3 0 0 0 1.5-10" style="opacity:1"/><path fill="#cdccc8" d="M45.5 115.5q.098.658-.5 1-5.358-.5-9.5-3-.465-4.82 1-9-.465 4.82 1 9 3.243 1.375 7 0-.247-5.025.5-10 .749 5.979.5 12" style="opacity:1"/><path fill="#afaeab" d="M103.5 103.5a13.1 13.1 0 0 1 7 1 261 261 0 0 1-7.5 2q-2.75 9.25 6.5 6.5a4.46 4.46 0 0 1-2-1.5q2.39-3.24 5-.5-3.143 6.624-10 3.5-4.03-5.868 1-11" style="opacity:1"/></svg>